<?xml version="1.0" encoding="utf-8"?>
<!-- Generator: Adobe Illustrator 24.2.0, SVG Export Plug-In . SVG Version: 6.00 Build 0)  -->
<svg fill="#bbbbbb" width="50px" height="50px" version="1.1" id="Layer_1" xmlns="http://www.w3.org/2000/svg" xmlns:xlink="http://www.w3.org/1999/xlink" x="0px" y="0px"
	 viewBox="0 0 1000 1000" style="enable-background:new 0 0 1000 1000;" xml:space="preserve">
<g>
	<path d="M906.3,512H878H523.9V249h-47.8v263H98h-4.4C54.1,512,22,479.8,22,440.2V272.9c0-39.6,32.1-71.7,71.7-71.7h86.2
		c-20.3-23.7-38.4-55.4-38.4-95.6c0-92.7,95.6-95.6,95.6-95.6c144.8,0,227.8,95,264.3,151c37.9-58.2,120.5-151,261.5-151
		c0,0,95.6,3,95.6,98.4c0,38.1-15.4,69-33.7,92.8h81.5c39.6,0,71.7,32.1,71.7,71.7v167.3C978,479.8,945.9,512,906.3,512z M261,81.7
		c-51.3,0-47.8,23.9-47.8,23.9c0,37,30.7,70.3,63.7,95.6H442C386.6,81.6,309.3,81.7,261,81.7z M739,83.8
		c-47.5,0-123.1,0-178.3,117.4h169.5c30.2-25.3,56.7-57.4,56.7-92.8C786.8,108.4,790.4,83.8,739,83.8z M476.1,990H141.5
		c-39.6,0-71.7-32.1-71.7-71.7V559.8h406.3L476.1,990L476.1,990z M523.9,559.8h382.4v358.5c0,39.6-32.1,71.7-71.7,71.7H523.9V559.8z
		"/>
</g>
</svg>
