<?xml version="1.0" encoding="utf-8"?>
<!-- Svg Vector Icons : http://www.onlinewebfonts.com/icon -->
<!DOCTYPE svg PUBLIC "-//W3C//DTD SVG 1.1//EN" "http://www.w3.org/Graphics/SVG/1.1/DTD/svg11.dtd">
<svg  fill="#bbb" version="1.1" xmlns="http://www.w3.org/2000/svg" xmlns:xlink="http://www.w3.org/1999/xlink" x="0px" y="0px" viewBox="0 0 1000 1000" enable-background="new 0 0 1000 1000" xml:space="preserve">
<metadata> Svg Vector Icons : http://www.onlinewebfonts.com/icon </metadata>
<g><path d="M10,45L10,45L10,45z"/><path d="M360,815c0-19-6.9-35.4-20.8-49.2C325.4,751.9,309,745,290,745c-19,0-35.4,6.9-49.2,20.8C226.9,779.6,220,796.1,220,815s6.9,35.4,20.8,49.2C254.6,878.1,271,885,290,885c19,0,35.4-6.9,49.2-20.8C353.1,850.4,360,834,360,815z M150,535h210V395h-86.4c-4.7,0-8.7,1.6-12,4.9L154.9,506.6c-3.3,3.3-4.9,7.3-4.9,12V535L150,535z M850,815c0-19-6.9-35.4-20.8-49.2C815.4,751.9,799,745,780,745c-19,0-35.4,6.9-49.2,20.8C716.9,779.6,710,796.1,710,815s6.9,35.4,20.8,49.2C744.6,878.1,761,885,780,885c19,0,35.4-6.9,49.2-20.8C843.1,850.4,850,834,850,815z M990,220v560c0,5.5-0.7,10.3-2.2,14.5c-1.5,4.2-3.9,7.6-7.4,10.1c-3.5,2.6-6.5,4.7-9,6.3c-2.6,1.6-6.8,2.7-12.8,3.3c-6,0.5-10.1,0.9-12.3,1.1c-2.2,0.2-6.8,0.2-13.9,0c-7.1-0.2-11.2-0.3-12.3-0.3c0,38.6-13.7,71.6-41,99c-27.3,27.3-60.3,41-99,41c-38.6,0-71.6-13.7-99-41c-27.3-27.4-41-60.4-41-99H430c0,38.6-13.7,71.6-41,99s-60.3,41-99,41c-38.6,0-71.6-13.7-99-41s-41-60.4-41-99h-35c-1.1,0-5.2,0.1-12.3,0.3c-7.1,0.2-11.8,0.2-14,0c-2.2-0.2-6.3-0.5-12.3-1.1c-6-0.5-10.3-1.6-12.8-3.3c-2.5-1.6-5.5-3.7-9-6.3c-3.5-2.6-5.9-5.9-7.4-10.1c-1.4-4.2-2.2-9-2.2-14.5c0-9.5,3.5-17.7,10.4-24.6C62.3,748.5,70.5,745,80,745V570c0-2.9-0.1-9.3-0.3-19.1c-0.2-9.8-0.2-16.8,0-20.8c0.2-4,0.6-10.3,1.4-18.9c0.7-8.6,1.9-15.3,3.6-20.2c1.6-4.9,4.2-10.5,7.7-16.7c3.5-6.2,7.6-11.7,12.3-16.4l108.3-108.3c6.9-6.9,16.1-12.8,27.6-17.5c11.5-4.7,22.1-7.1,32-7.1H360V220c0-9.5,3.5-17.7,10.4-24.6c6.9-6.9,15.1-10.4,24.6-10.4h560c9.5,0,17.7,3.5,24.6,10.4C986.5,202.4,990,210.6,990,220L990,220z"/></g>
</svg>